<?xml version="1.0" encoding="UTF-8" standalone="no"?>
<!DOCTYPE svg PUBLIC "-//W3C//DTD SVG 1.1//EN"
 "http://www.w3.org/Graphics/SVG/1.1/DTD/svg11.dtd">
<!-- Generated by graphviz version 2.38.0 (20140413.2041)
 -->
<!-- Title: controllers_diagram Pages: 1 -->
<svg width="584pt" height="593pt"
 viewBox="0.00 0.00 583.85 593.00" xmlns="http://www.w3.org/2000/svg" xmlns:xlink="http://www.w3.org/1999/xlink">
<g id="graph0" class="graph" transform="scale(1 1) rotate(0) translate(244.162 365.5)">
<title>controllers_diagram</title>
<polygon fill="white" stroke="none" points="-244.162,227.5 -244.162,-365.5 339.688,-365.5 339.688,227.5 -244.162,227.5"/>
<!-- _diagram_info -->
<g id="node1" class="node"><title>_diagram_info</title>
<text text-anchor="start" x="136.312" y="-59.1" font-family="Times,serif" font-size="13.00">Controllers diagram</text>
<text text-anchor="start" x="136.312" y="-46.1" font-family="Times,serif" font-size="13.00">Date: Jan 14 2015 &#45; 19:11</text>
<text text-anchor="start" x="136.312" y="-33.1" font-family="Times,serif" font-size="13.00">Migration version: 20140215042950</text>
<text text-anchor="start" x="136.312" y="-20.1" font-family="Times,serif" font-size="13.00">Generated by RailRoady 1.3.0</text>
<text text-anchor="start" x="136.312" y="-7.1" font-family="Times,serif" font-size="13.00">http://railroady.prestonlee.com</text>
</g>
<!-- Admin::DashboardController -->
<g id="node2" class="node"><title>Admin::DashboardController</title>
<path fill="none" stroke="black" d="M-212.431,223C-212.431,223 -55.5688,223 -55.5688,223 -49.5688,223 -43.5688,217 -43.5688,211 -43.5688,211 -43.5688,145 -43.5688,145 -43.5688,139 -49.5688,133 -55.5688,133 -55.5688,133 -212.431,133 -212.431,133 -218.431,133 -224.431,139 -224.431,145 -224.431,145 -224.431,211 -224.431,211 -224.431,217 -218.431,223 -212.431,223"/>
<text text-anchor="middle" x="-134" y="148.2" font-family="Times,serif" font-size="14.00">Admin::DashboardController</text>
<polyline fill="none" stroke="black" points="-224.431,155 -43.5688,155 "/>
<text text-anchor="start" x="-216.431" y="170.2" font-family="Times,serif" font-size="14.00">index</text>
<polyline fill="none" stroke="black" points="-224.431,177 -43.5688,177 "/>
<polyline fill="none" stroke="black" points="-224.431,201 -43.5688,201 "/>
<text text-anchor="start" x="-216.431" y="216.2" font-family="Times,serif" font-size="14.00">_layout</text>
</g>
<!-- Admin::ObservationsController -->
<g id="node3" class="node"><title>Admin::ObservationsController</title>
<path fill="none" stroke="black" d="M-100.045,-113C-100.045,-113 70.0449,-113 70.0449,-113 76.0449,-113 82.0449,-119 82.0449,-125 82.0449,-125 82.0449,-205 82.0449,-205 82.0449,-211 76.0449,-217 70.0449,-217 70.0449,-217 -100.045,-217 -100.045,-217 -106.045,-217 -112.045,-211 -112.045,-205 -112.045,-205 -112.045,-125 -112.045,-125 -112.045,-119 -106.045,-113 -100.045,-113"/>
<text text-anchor="middle" x="-15" y="-201.8" font-family="Times,serif" font-size="14.00">Admin::ObservationsController</text>
<polyline fill="none" stroke="black" points="-112.045,-195 82.0449,-195 "/>
<text text-anchor="start" x="-104.045" y="-179.8" font-family="Times,serif" font-size="14.00">index</text>
<text text-anchor="start" x="-104.045" y="-165.8" font-family="Times,serif" font-size="14.00">update</text>
<polyline fill="none" stroke="black" points="-112.045,-159 82.0449,-159 "/>
<polyline fill="none" stroke="black" points="-112.045,-135 82.0449,-135 "/>
<text text-anchor="start" x="-104.045" y="-119.8" font-family="Times,serif" font-size="14.00">_layout</text>
</g>
<!-- Admin::ReadersController -->
<g id="node4" class="node"><title>Admin::ReadersController</title>
<path fill="none" stroke="black" d="M124.348,-113C124.348,-113 265.652,-113 265.652,-113 271.652,-113 277.652,-119 277.652,-125 277.652,-125 277.652,-275 277.652,-275 277.652,-281 271.652,-287 265.652,-287 265.652,-287 124.348,-287 124.348,-287 118.348,-287 112.348,-281 112.348,-275 112.348,-275 112.348,-125 112.348,-125 112.348,-119 118.348,-113 124.348,-113"/>
<text text-anchor="middle" x="195" y="-271.8" font-family="Times,serif" font-size="14.00">Admin::ReadersController</text>
<polyline fill="none" stroke="black" points="112.348,-265 277.652,-265 "/>
<text text-anchor="start" x="120.348" y="-249.8" font-family="Times,serif" font-size="14.00">create</text>
<text text-anchor="start" x="120.348" y="-235.8" font-family="Times,serif" font-size="14.00">deactivate</text>
<text text-anchor="start" x="120.348" y="-221.8" font-family="Times,serif" font-size="14.00">edit</text>
<text text-anchor="start" x="120.348" y="-207.8" font-family="Times,serif" font-size="14.00">index</text>
<text text-anchor="start" x="120.348" y="-193.8" font-family="Times,serif" font-size="14.00">new</text>
<text text-anchor="start" x="120.348" y="-179.8" font-family="Times,serif" font-size="14.00">show</text>
<text text-anchor="start" x="120.348" y="-165.8" font-family="Times,serif" font-size="14.00">update</text>
<polyline fill="none" stroke="black" points="112.348,-159 277.652,-159 "/>
<polyline fill="none" stroke="black" points="112.348,-135 277.652,-135 "/>
<text text-anchor="start" x="120.348" y="-119.8" font-family="Times,serif" font-size="14.00">_layout</text>
</g>
<!-- ApplicationController -->
<g id="node5" class="node"><title>ApplicationController</title>
<path fill="none" stroke="black" d="M139.683,127C139.683,127 318.317,127 318.317,127 324.317,127 330.317,121 330.317,115 330.317,115 330.317,49 330.317,49 330.317,43 324.317,37 318.317,37 318.317,37 139.683,37 139.683,37 133.683,37 127.683,43 127.683,49 127.683,49 127.683,115 127.683,115 127.683,121 133.683,127 139.683,127"/>
<text text-anchor="middle" x="229" y="52.2" font-family="Times,serif" font-size="14.00">ApplicationController</text>
<polyline fill="none" stroke="black" points="127.683,59 330.317,59 "/>
<text text-anchor="start" x="135.683" y="74.2" font-family="Times,serif" font-size="14.00">_one_time_conditions_valid_14?</text>
<polyline fill="none" stroke="black" points="127.683,81 330.317,81 "/>
<polyline fill="none" stroke="black" points="127.683,105 330.317,105 "/>
<text text-anchor="start" x="135.683" y="120.2" font-family="Times,serif" font-size="14.00">_layout</text>
</g>
<!-- EvidencesController -->
<g id="node6" class="node"><title>EvidencesController</title>
<path fill="none" stroke="black" d="M-35.5381,-257C-35.5381,-257 71.5381,-257 71.5381,-257 77.5381,-257 83.5381,-263 83.5381,-269 83.5381,-269 83.5381,-349 83.5381,-349 83.5381,-355 77.5381,-361 71.5381,-361 71.5381,-361 -35.5381,-361 -35.5381,-361 -41.5381,-361 -47.5381,-355 -47.5381,-349 -47.5381,-349 -47.5381,-269 -47.5381,-269 -47.5381,-263 -41.5381,-257 -35.5381,-257"/>
<text text-anchor="middle" x="18" y="-345.8" font-family="Times,serif" font-size="14.00">EvidencesController</text>
<polyline fill="none" stroke="black" points="-47.5381,-339 83.5381,-339 "/>
<text text-anchor="start" x="-39.5381" y="-323.8" font-family="Times,serif" font-size="14.00">index</text>
<text text-anchor="start" x="-39.5381" y="-309.8" font-family="Times,serif" font-size="14.00">score</text>
<polyline fill="none" stroke="black" points="-47.5381,-303 83.5381,-303 "/>
<polyline fill="none" stroke="black" points="-47.5381,-279 83.5381,-279 "/>
<text text-anchor="start" x="-39.5381" y="-263.8" font-family="Times,serif" font-size="14.00">_layout</text>
</g>
<!-- ObservationsController -->
<g id="node7" class="node"><title>ObservationsController</title>
<path fill="none" stroke="black" d="M-100.317,95C-100.317,95 78.3174,95 78.3174,95 84.3174,95 90.3174,89 90.3174,83 90.3174,83 90.3174,-67 90.3174,-67 90.3174,-73 84.3174,-79 78.3174,-79 78.3174,-79 -100.317,-79 -100.317,-79 -106.317,-79 -112.317,-73 -112.317,-67 -112.317,-67 -112.317,83 -112.317,83 -112.317,89 -106.317,95 -100.317,95"/>
<text text-anchor="middle" x="-11" y="-63.8" font-family="Times,serif" font-size="14.00">ObservationsController</text>
<polyline fill="none" stroke="black" points="-112.317,-57 90.3174,-57 "/>
<text text-anchor="start" x="-104.317" y="-41.8" font-family="Times,serif" font-size="14.00">_one_time_conditions_valid_34?</text>
<text text-anchor="start" x="-104.317" y="-27.8" font-family="Times,serif" font-size="14.00">_one_time_conditions_valid_36?</text>
<text text-anchor="start" x="-104.317" y="-13.8" font-family="Times,serif" font-size="14.00">index</text>
<text text-anchor="start" x="-104.317" y="0.2" font-family="Times,serif" font-size="14.00">show</text>
<text text-anchor="start" x="-104.317" y="14.2" font-family="Times,serif" font-size="14.00">update</text>
<polyline fill="none" stroke="black" points="-112.317,21 90.3174,21 "/>
<polyline fill="none" stroke="black" points="-112.317,45 90.3174,45 "/>
<text text-anchor="start" x="-104.317" y="60.2" font-family="Times,serif" font-size="14.00">_layout</text>
<text text-anchor="start" x="-104.317" y="74.2" font-family="Times,serif" font-size="14.00">current_reads</text>
<text text-anchor="start" x="-104.317" y="88.2" font-family="Times,serif" font-size="14.00">require_reader</text>
</g>
<!-- ReadersController -->
<g id="node8" class="node"><title>ReadersController</title>
<path fill="none" stroke="black" d="M-4.31738,223C-4.31738,223 90.3174,223 90.3174,223 96.3174,223 102.317,217 102.317,211 102.317,211 102.317,145 102.317,145 102.317,139 96.3174,133 90.3174,133 90.3174,133 -4.31738,133 -4.31738,133 -10.3174,133 -16.3174,139 -16.3174,145 -16.3174,145 -16.3174,211 -16.3174,211 -16.3174,217 -10.3174,223 -4.31738,223"/>
<text text-anchor="middle" x="43" y="148.2" font-family="Times,serif" font-size="14.00">ReadersController</text>
<polyline fill="none" stroke="black" points="-16.3174,155 102.317,155 "/>
<text text-anchor="start" x="-8.31738" y="170.2" font-family="Times,serif" font-size="14.00">index</text>
<polyline fill="none" stroke="black" points="-16.3174,177 102.317,177 "/>
<polyline fill="none" stroke="black" points="-16.3174,201 102.317,201 "/>
<text text-anchor="start" x="-8.31738" y="216.2" font-family="Times,serif" font-size="14.00">_layout</text>
</g>
<!-- SamlController -->
<g id="node9" class="node"><title>SamlController</title>
<path fill="none" stroke="black" d="M-228.162,-1C-228.162,-1 -149.838,-1 -149.838,-1 -143.838,-1 -137.838,-7 -137.838,-13 -137.838,-13 -137.838,-135 -137.838,-135 -137.838,-141 -143.838,-147 -149.838,-147 -149.838,-147 -228.162,-147 -228.162,-147 -234.162,-147 -240.162,-141 -240.162,-135 -240.162,-135 -240.162,-13 -240.162,-13 -240.162,-7 -234.162,-1 -228.162,-1"/>
<text text-anchor="middle" x="-189" y="-131.8" font-family="Times,serif" font-size="14.00">SamlController</text>
<polyline fill="none" stroke="black" points="-240.162,-125 -137.838,-125 "/>
<text text-anchor="start" x="-232.162" y="-109.8" font-family="Times,serif" font-size="14.00">create</text>
<text text-anchor="start" x="-232.162" y="-95.8" font-family="Times,serif" font-size="14.00">index</text>
<text text-anchor="start" x="-232.162" y="-81.8" font-family="Times,serif" font-size="14.00">metadata</text>
<text text-anchor="start" x="-232.162" y="-67.8" font-family="Times,serif" font-size="14.00">saml_settings</text>
<polyline fill="none" stroke="black" points="-240.162,-61 -137.838,-61 "/>
<polyline fill="none" stroke="black" points="-240.162,-37 -137.838,-37 "/>
<text text-anchor="start" x="-232.162" y="-21.8" font-family="Times,serif" font-size="14.00">_layout</text>
<text text-anchor="start" x="-232.162" y="-7.8" font-family="Times,serif" font-size="14.00">signed_in_user</text>
</g>
<!-- SessionsController -->
<g id="node10" class="node"><title>SessionsController</title>
<path fill="none" stroke="black" d="M-195.89,-257C-195.89,-257 -98.1104,-257 -98.1104,-257 -92.1104,-257 -86.1104,-263 -86.1104,-269 -86.1104,-269 -86.1104,-349 -86.1104,-349 -86.1104,-355 -92.1104,-361 -98.1104,-361 -98.1104,-361 -195.89,-361 -195.89,-361 -201.89,-361 -207.89,-355 -207.89,-349 -207.89,-349 -207.89,-269 -207.89,-269 -207.89,-263 -201.89,-257 -195.89,-257"/>
<text text-anchor="middle" x="-147" y="-345.8" font-family="Times,serif" font-size="14.00">SessionsController</text>
<polyline fill="none" stroke="black" points="-207.89,-339 -86.1104,-339 "/>
<text text-anchor="start" x="-199.89" y="-323.8" font-family="Times,serif" font-size="14.00">create</text>
<text text-anchor="start" x="-199.89" y="-309.8" font-family="Times,serif" font-size="14.00">destroy</text>
<polyline fill="none" stroke="black" points="-207.89,-303 -86.1104,-303 "/>
<polyline fill="none" stroke="black" points="-207.89,-279 -86.1104,-279 "/>
<text text-anchor="start" x="-199.89" y="-263.8" font-family="Times,serif" font-size="14.00">_layout</text>
</g>
</g>
</svg>
