<?xml version="1.0" encoding="UTF-8" standalone="no"?>
<!DOCTYPE svg PUBLIC "-//W3C//DTD SVG 1.1//EN"
 "http://www.w3.org/Graphics/SVG/1.1/DTD/svg11.dtd">
<!-- Generated by graphviz version 2.38.0 (20140413.2041)
 -->
<!-- Title: models_diagram Pages: 1 -->
<svg width="340pt" height="441pt"
 viewBox="0.00 0.00 340.19 441.00" xmlns="http://www.w3.org/2000/svg" xmlns:xlink="http://www.w3.org/1999/xlink">
<g id="graph0" class="graph" transform="scale(1 1) rotate(0) translate(4 437)">
<title>models_diagram</title>
<polygon fill="white" stroke="none" points="-4,4 -4,-437 336.189,-437 336.189,4 -4,4"/>
<!-- _diagram_info -->
<g id="node1" class="node"><title>_diagram_info</title>
<text text-anchor="start" x="8" y="-418.6" font-family="Times,serif" font-size="13.00">Models diagram</text>
<text text-anchor="start" x="8" y="-405.6" font-family="Times,serif" font-size="13.00">Date: Jan 14 2015 &#45; 19:11</text>
<text text-anchor="start" x="8" y="-392.6" font-family="Times,serif" font-size="13.00">Migration version: 20140215042950</text>
<text text-anchor="start" x="8" y="-379.6" font-family="Times,serif" font-size="13.00">Generated by RailRoady 1.3.0</text>
<text text-anchor="start" x="8" y="-366.6" font-family="Times,serif" font-size="13.00">http://railroady.prestonlee.com</text>
</g>
<!-- Domain -->
<g id="node2" class="node"><title>Domain</title>
<ellipse fill="none" stroke="black" cx="92.6877" cy="-306" rx="38.6955" ry="18"/>
<text text-anchor="middle" x="92.6877" y="-301.8" font-family="Times,serif" font-size="14.00">Domain</text>
</g>
<!-- DomainScore -->
<g id="node3" class="node"><title>DomainScore</title>
<ellipse fill="none" stroke="black" cx="143.688" cy="-234" rx="58.9668" ry="18"/>
<text text-anchor="middle" x="143.688" y="-229.8" font-family="Times,serif" font-size="14.00">DomainScore</text>
</g>
<!-- Domain&#45;&gt;DomainScore -->
<g id="edge1" class="edge"><title>Domain&#45;&gt;DomainScore</title>
<path fill="none" stroke="#2b3c4b" d="M109.328,-282.161C114.539,-275.008 120.314,-267.081 125.619,-259.8"/>
<ellipse fill="none" stroke="#2b3c4b" cx="106.872" cy="-285.532" rx="4.00002" ry="4.00002"/>
<polygon fill="#2b3c4b" stroke="#2b3c4b" points="125.681,-259.716 135.206,-254.283 128.625,-255.675 131.569,-251.633 131.569,-251.633 131.569,-251.633 128.625,-255.675 127.932,-248.984 125.681,-259.716 125.681,-259.716"/>
</g>
<!-- Indicator -->
<g id="node5" class="node"><title>Indicator</title>
<ellipse fill="none" stroke="black" cx="48.6877" cy="-162" rx="42.0524" ry="18"/>
<text text-anchor="middle" x="48.6877" y="-157.8" font-family="Times,serif" font-size="14.00">Indicator</text>
</g>
<!-- Domain&#45;&gt;Indicator -->
<g id="edge2" class="edge"><title>Domain&#45;&gt;Indicator</title>
<path fill="none" stroke="#4ebe44" d="M84.6095,-280.094C81.7596,-271.235 78.5527,-261.181 75.6877,-252 69.1743,-231.126 61.9965,-207.432 56.6799,-189.742"/>
<ellipse fill="none" stroke="#4ebe44" cx="85.8785" cy="-284.029" rx="4.00001" ry="4.00001"/>
<polygon fill="#4ebe44" stroke="#4ebe44" points="56.657,-189.665 58.094,-178.794 55.2204,-184.876 53.7837,-180.087 53.7837,-180.087 53.7837,-180.087 55.2204,-184.876 49.4735,-181.379 56.657,-189.665 56.657,-189.665"/>
</g>
<!-- DomainScore&#45;&gt;Indicator -->
<g id="edge4" class="edge"><title>DomainScore&#45;&gt;Indicator</title>
<path fill="none" stroke="#992cce" d="M109.144,-212.141C96.9697,-203.651 83.6052,-193.828 72.4918,-185.206"/>
<polygon fill="#992cce" stroke="#992cce" points="109.154,-212.147 114.847,-221.52 113.275,-214.979 117.396,-217.811 117.396,-217.811 117.396,-217.811 113.275,-214.979 119.944,-214.102 109.154,-212.147 109.154,-212.147"/>
<polygon fill="#992cce" stroke="#992cce" points="72.3382,-185.084 67.2772,-175.356 68.4136,-181.986 64.489,-178.888 64.489,-178.888 64.489,-178.888 68.4136,-181.986 61.7008,-182.42 72.3382,-185.084 72.3382,-185.084"/>
</g>
<!-- IndicatorScore -->
<g id="node6" class="node"><title>IndicatorScore</title>
<ellipse fill="none" stroke="black" cx="208.688" cy="-90" rx="62.3234" ry="18"/>
<text text-anchor="middle" x="208.688" y="-85.8" font-family="Times,serif" font-size="14.00">IndicatorScore</text>
</g>
<!-- DomainScore&#45;&gt;IndicatorScore -->
<g id="edge3" class="edge"><title>DomainScore&#45;&gt;IndicatorScore</title>
<path fill="none" stroke="#c2ed7f" d="M175.768,-212.558C186.572,-203.908 197.458,-192.841 203.688,-180 213.005,-160.795 213.734,-136.449 212.424,-118.077"/>
<ellipse fill="none" stroke="#c2ed7f" cx="172.279" cy="-215.207" rx="4.00002" ry="4.00002"/>
<polygon fill="#c2ed7f" stroke="#c2ed7f" points="212.416,-117.988 215.946,-107.607 211.941,-113.011 211.467,-108.034 211.467,-108.034 211.467,-108.034 211.941,-113.011 206.987,-108.461 212.416,-117.988 212.416,-117.988"/>
</g>
<!-- Evidence -->
<g id="node9" class="node"><title>Evidence</title>
<ellipse fill="none" stroke="black" cx="151.688" cy="-162" rx="43.0128" ry="18"/>
<text text-anchor="middle" x="151.688" y="-157.8" font-family="Times,serif" font-size="14.00">Evidence</text>
</g>
<!-- DomainScore&#45;&gt;Evidence -->
<g id="edge5" class="edge"><title>DomainScore&#45;&gt;Evidence</title>
<path fill="none" stroke="#ef5ad3" d="M146.812,-205.665C147.396,-200.552 148.007,-195.21 148.59,-190.104"/>
<polygon fill="#ef5ad3" stroke="#ef5ad3" points="146.801,-205.761 141.194,-215.186 146.233,-210.729 145.665,-215.697 145.665,-215.697 145.665,-215.697 146.233,-210.729 150.136,-216.208 146.801,-205.761 146.801,-205.761"/>
<polygon fill="#ef5ad3" stroke="#ef5ad3" points="148.597,-190.04 154.204,-180.615 149.165,-185.072 149.733,-180.104 149.733,-180.104 149.733,-180.104 149.165,-185.072 145.262,-179.593 148.597,-190.04 148.597,-190.04"/>
</g>
<!-- EvidenceScore -->
<g id="node4" class="node"><title>EvidenceScore</title>
<ellipse fill="none" stroke="black" cx="208.688" cy="-18" rx="63.2837" ry="18"/>
<text text-anchor="middle" x="208.688" y="-13.8" font-family="Times,serif" font-size="14.00">EvidenceScore</text>
</g>
<!-- Indicator&#45;&gt;DomainScore -->
<g id="edge7" class="edge"><title>Indicator&#45;&gt;DomainScore</title>
<path fill="none" stroke="#6ac296" d="M79.9096,-181.556C92.6546,-190.343 107.12,-200.919 119.105,-210.191"/>
<ellipse fill="none" stroke="#6ac296" cx="76.34" cy="-179.128" rx="4.00002" ry="4.00002"/>
<polygon fill="#6ac296" stroke="#6ac296" points="119.153,-210.229 124.232,-219.948 123.084,-213.32 127.014,-216.411 127.014,-216.411 127.014,-216.411 123.084,-213.32 129.796,-212.874 119.153,-210.229 119.153,-210.229"/>
</g>
<!-- Indicator&#45;&gt;EvidenceScore -->
<g id="edge8" class="edge"><title>Indicator&#45;&gt;EvidenceScore</title>
<path fill="none" stroke="#de5fd3" d="M70.4552,-137.435C87.9637,-118.933 113.542,-92.8937 137.688,-72 150.163,-61.2051 164.647,-50.1528 177.267,-40.9535"/>
<polygon fill="#de5fd3" stroke="#de5fd3" points="70.3206,-137.579 60.1937,-141.786 66.897,-141.223 63.4734,-144.867 63.4734,-144.867 63.4734,-144.867 66.897,-141.223 66.753,-147.948 70.3206,-137.579 70.3206,-137.579"/>
<polygon fill="#de5fd3" stroke="#de5fd3" points="177.545,-40.7529 188.289,-38.5576 181.602,-37.8298 185.658,-34.9067 185.658,-34.9067 185.658,-34.9067 181.602,-37.8298 183.027,-31.2558 177.545,-40.7529 177.545,-40.7529"/>
</g>
<!-- Indicator&#45;&gt;IndicatorScore -->
<g id="edge6" class="edge"><title>Indicator&#45;&gt;IndicatorScore</title>
<path fill="none" stroke="#424af9" d="M84.3505,-145.398C109.235,-134.511 142.484,-119.964 168.338,-108.653"/>
<ellipse fill="none" stroke="#424af9" cx="80.5889" cy="-147.043" rx="4.00002" ry="4.00002"/>
<ellipse fill="#424af9" stroke="#424af9" cx="172.098" cy="-107.008" rx="4.00002" ry="4.00002"/>
</g>
<!-- IndicatorScore&#45;&gt;EvidenceScore -->
<g id="edge9" class="edge"><title>IndicatorScore&#45;&gt;EvidenceScore</title>
<path fill="none" stroke="#2e9669" d="M208.688,-63.6398C208.688,-58.0629 208.688,-52.1319 208.688,-46.4761"/>
<ellipse fill="none" stroke="#2e9669" cx="208.688" cy="-67.6966" rx="4" ry="4"/>
<polygon fill="#2e9669" stroke="#2e9669" points="208.688,-46.1043 213.188,-36.1043 208.688,-41.1043 208.688,-36.1043 208.688,-36.1043 208.688,-36.1043 208.688,-41.1043 204.188,-36.1044 208.688,-46.1043 208.688,-46.1043"/>
</g>
<!-- ObservationRead -->
<g id="node7" class="node"><title>ObservationRead</title>
<ellipse fill="none" stroke="black" cx="260.688" cy="-306" rx="71.5031" ry="18"/>
<text text-anchor="middle" x="260.688" y="-301.8" font-family="Times,serif" font-size="14.00">ObservationRead</text>
</g>
<!-- ObservationRead&#45;&gt;DomainScore -->
<g id="edge10" class="edge"><title>ObservationRead&#45;&gt;DomainScore</title>
<path fill="none" stroke="#174319" d="M227.055,-284.878C211.693,-275.687 193.521,-264.814 178.069,-255.57"/>
<ellipse fill="none" stroke="#174319" cx="230.706" cy="-287.062" rx="4.00002" ry="4.00002"/>
<polygon fill="#174319" stroke="#174319" points="177.909,-255.474 171.638,-246.479 173.618,-252.907 169.328,-250.34 169.328,-250.34 169.328,-250.34 173.618,-252.907 167.017,-254.202 177.909,-255.474 177.909,-255.474"/>
</g>
<!-- ObservationRead&#45;&gt;EvidenceScore -->
<g id="edge12" class="edge"><title>ObservationRead&#45;&gt;EvidenceScore</title>
<path fill="none" stroke="#aad88c" d="M271.393,-278.422C287.776,-233.298 313.779,-139.99 279.688,-72 272.91,-58.4817 260.866,-47.5299 248.601,-39.167"/>
<polygon fill="#aad88c" stroke="#aad88c" points="271.291,-278.694 263.56,-286.471 269.531,-283.374 267.772,-288.054 267.772,-288.054 267.772,-288.054 269.531,-283.374 271.985,-289.638 271.291,-278.694 271.291,-278.694"/>
<polygon fill="#aad88c" stroke="#aad88c" points="248.579,-39.1524 242.55,-29.9925 244.358,-36.4718 240.137,-33.7911 240.137,-33.7911 240.137,-33.7911 244.358,-36.4718 237.725,-37.5898 248.579,-39.1524 248.579,-39.1524"/>
</g>
<!-- ObservationRead&#45;&gt;IndicatorScore -->
<g id="edge11" class="edge"><title>ObservationRead&#45;&gt;IndicatorScore</title>
<path fill="none" stroke="#bc7c3c" d="M254.088,-277.651C246.352,-245.615 233.131,-190.944 221.688,-144 219.637,-135.586 217.393,-126.424 215.356,-118.12"/>
<polygon fill="#bc7c3c" stroke="#bc7c3c" points="254.144,-277.883 252.117,-288.66 255.318,-282.744 256.491,-287.604 256.491,-287.604 256.491,-287.604 255.318,-282.744 260.865,-286.548 254.144,-277.883 254.144,-277.883"/>
<polygon fill="#bc7c3c" stroke="#bc7c3c" points="215.3,-117.894 217.286,-107.11 214.108,-113.038 212.916,-108.183 212.916,-108.183 212.916,-108.183 214.108,-113.038 208.545,-109.256 215.3,-117.894 215.3,-117.894"/>
</g>
<!-- Reader -->
<g id="node8" class="node"><title>Reader</title>
<ellipse fill="none" stroke="black" cx="260.688" cy="-396.5" rx="35.2956" ry="18"/>
<text text-anchor="middle" x="260.688" y="-392.3" font-family="Times,serif" font-size="14.00">Reader</text>
</g>
<!-- Reader&#45;&gt;ObservationRead -->
<g id="edge13" class="edge"><title>Reader&#45;&gt;ObservationRead</title>
<path fill="none" stroke="#9568c3" d="M260.688,-370.189C260.688,-358.971 260.688,-345.752 260.688,-334.311"/>
<ellipse fill="none" stroke="#9568c3" cx="260.688" cy="-374.436" rx="4" ry="4"/>
<polygon fill="#9568c3" stroke="#9568c3" points="260.688,-334.011 265.188,-324.011 260.688,-329.011 260.688,-324.011 260.688,-324.011 260.688,-324.011 260.688,-329.011 256.188,-324.011 260.688,-334.011 260.688,-334.011"/>
</g>
</g>
</svg>
