<?xml version="1.0" encoding="UTF-8" standalone="no"?>
<!DOCTYPE svg PUBLIC "-//W3C//DTD SVG 1.1//EN"
 "http://www.w3.org/Graphics/SVG/1.1/DTD/svg11.dtd">
<!-- Generated by graphviz version 2.38.0 (20140413.2041)
 -->
<!-- Title: models_diagram Pages: 1 -->
<svg width="409pt" height="1102pt"
 viewBox="0.00 0.00 409.25 1102.00" xmlns="http://www.w3.org/2000/svg" xmlns:xlink="http://www.w3.org/1999/xlink">
<g id="graph0" class="graph" transform="scale(1 1) rotate(0) translate(4 1098)">
<title>models_diagram</title>
<polygon fill="white" stroke="none" points="-4,4 -4,-1098 405.252,-1098 405.252,4 -4,4"/>
<!-- _diagram_info -->
<g id="node1" class="node"><title>_diagram_info</title>
<text text-anchor="start" x="8" y="-1044.6" font-family="Times,serif" font-size="13.00">Models diagram</text>
<text text-anchor="start" x="8" y="-1031.6" font-family="Times,serif" font-size="13.00">Date: Jan 14 2015 &#45; 19:11</text>
<text text-anchor="start" x="8" y="-1018.6" font-family="Times,serif" font-size="13.00">Migration version: 20140215042950</text>
<text text-anchor="start" x="8" y="-1005.6" font-family="Times,serif" font-size="13.00">Generated by RailRoady 1.3.0</text>
<text text-anchor="start" x="8" y="-992.6" font-family="Times,serif" font-size="13.00">http://railroady.prestonlee.com</text>
</g>
<!-- Domain -->
<g id="node2" class="node"><title>Domain</title>
<path fill="none" stroke="black" d="M60.9446,-737.5C60.9446,-737.5 154.431,-737.5 154.431,-737.5 160.431,-737.5 166.431,-743.5 166.431,-749.5 166.431,-749.5 166.431,-797.5 166.431,-797.5 166.431,-803.5 160.431,-809.5 154.431,-809.5 154.431,-809.5 60.9446,-809.5 60.9446,-809.5 54.9446,-809.5 48.9446,-803.5 48.9446,-797.5 48.9446,-797.5 48.9446,-749.5 48.9446,-749.5 48.9446,-743.5 54.9446,-737.5 60.9446,-737.5"/>
<text text-anchor="middle" x="107.688" y="-794.3" font-family="Times,serif" font-size="14.00">Domain</text>
<polyline fill="none" stroke="black" points="48.9446,-787.5 166.431,-787.5 "/>
<text text-anchor="start" x="56.9446" y="-772.3" font-family="Times,serif" font-size="14.00">id :integer</text>
<text text-anchor="start" x="56.9446" y="-758.3" font-family="Times,serif" font-size="14.00">number :integer</text>
<text text-anchor="start" x="56.9446" y="-744.3" font-family="Times,serif" font-size="14.00">description :string</text>
</g>
<!-- DomainScore -->
<g id="node3" class="node"><title>DomainScore</title>
<path fill="none" stroke="black" d="M115.41,-481.5C115.41,-481.5 267.966,-481.5 267.966,-481.5 273.966,-481.5 279.966,-487.5 279.966,-493.5 279.966,-493.5 279.966,-583.5 279.966,-583.5 279.966,-589.5 273.966,-595.5 267.966,-595.5 267.966,-595.5 115.41,-595.5 115.41,-595.5 109.41,-595.5 103.41,-589.5 103.41,-583.5 103.41,-583.5 103.41,-493.5 103.41,-493.5 103.41,-487.5 109.41,-481.5 115.41,-481.5"/>
<text text-anchor="middle" x="191.688" y="-580.3" font-family="Times,serif" font-size="14.00">DomainScore</text>
<polyline fill="none" stroke="black" points="103.41,-573.5 279.966,-573.5 "/>
<text text-anchor="start" x="111.41" y="-558.3" font-family="Times,serif" font-size="14.00">observation_read_id :integer</text>
<text text-anchor="start" x="111.41" y="-544.3" font-family="Times,serif" font-size="14.00">quality_score :integer</text>
<text text-anchor="start" x="111.41" y="-530.3" font-family="Times,serif" font-size="14.00">domain_id :integer</text>
<text text-anchor="start" x="111.41" y="-516.3" font-family="Times,serif" font-size="14.00">created_at :datetime</text>
<text text-anchor="start" x="111.41" y="-502.3" font-family="Times,serif" font-size="14.00">updated_at :datetime</text>
<text text-anchor="start" x="111.41" y="-488.3" font-family="Times,serif" font-size="14.00">id :integer</text>
</g>
<!-- Domain&#45;&gt;DomainScore -->
<g id="edge1" class="edge"><title>Domain&#45;&gt;DomainScore</title>
<path fill="none" stroke="#24633a" d="M123.151,-729.608C135.688,-694.834 153.567,-645.24 167.921,-605.425"/>
<ellipse fill="none" stroke="#24633a" cx="121.711" cy="-733.602" rx="4.00001" ry="4.00001"/>
<polygon fill="#24633a" stroke="#24633a" points="168.003,-605.197 175.628,-597.316 169.699,-600.493 171.394,-595.79 171.394,-595.79 171.394,-595.79 169.699,-600.493 167.161,-594.263 168.003,-605.197 168.003,-605.197"/>
</g>
<!-- Indicator -->
<g id="node5" class="node"><title>Indicator</title>
<path fill="none" stroke="black" d="M21.1375,-344.5C21.1375,-344.5 126.238,-344.5 126.238,-344.5 132.238,-344.5 138.238,-350.5 138.238,-356.5 138.238,-356.5 138.238,-432.5 138.238,-432.5 138.238,-438.5 132.238,-444.5 126.238,-444.5 126.238,-444.5 21.1375,-444.5 21.1375,-444.5 15.1375,-444.5 9.13745,-438.5 9.13745,-432.5 9.13745,-432.5 9.13745,-356.5 9.13745,-356.5 9.13745,-350.5 15.1375,-344.5 21.1375,-344.5"/>
<text text-anchor="middle" x="73.6877" y="-429.3" font-family="Times,serif" font-size="14.00">Indicator</text>
<polyline fill="none" stroke="black" points="9.13745,-422.5 138.238,-422.5 "/>
<text text-anchor="start" x="17.1375" y="-407.3" font-family="Times,serif" font-size="14.00">id :integer</text>
<text text-anchor="start" x="17.1375" y="-393.3" font-family="Times,serif" font-size="14.00">code :string</text>
<text text-anchor="start" x="17.1375" y="-379.3" font-family="Times,serif" font-size="14.00">description :string</text>
<text text-anchor="start" x="17.1375" y="-365.3" font-family="Times,serif" font-size="14.00">domain_id :integer</text>
<text text-anchor="start" x="17.1375" y="-351.3" font-family="Times,serif" font-size="14.00">created_at :datetime</text>
</g>
<!-- Domain&#45;&gt;Indicator -->
<g id="edge2" class="edge"><title>Domain&#45;&gt;Indicator</title>
<path fill="none" stroke="#785f94" d="M103.773,-729.096C97.6811,-661.544 85.9181,-531.113 79.0441,-454.892"/>
<ellipse fill="none" stroke="#785f94" cx="104.16" cy="-733.387" rx="4" ry="4"/>
<polygon fill="#785f94" stroke="#785f94" points="79.006,-454.469 82.5895,-444.105 78.5568,-449.489 78.1077,-444.509 78.1077,-444.509 78.1077,-444.509 78.5568,-449.489 73.6259,-444.914 79.006,-454.469 79.006,-454.469"/>
</g>
<!-- DomainScore&#45;&gt;Indicator -->
<g id="edge4" class="edge"><title>DomainScore&#45;&gt;Indicator</title>
<path fill="none" stroke="#d254de" d="M131.917,-473.658C126.069,-466.693 120.232,-459.635 114.63,-452.756"/>
<polygon fill="#d254de" stroke="#d254de" points="131.983,-473.737 134.996,-484.281 135.209,-477.557 138.435,-481.378 138.435,-481.378 138.435,-481.378 135.209,-477.557 141.873,-478.475 131.983,-473.737 131.983,-473.737"/>
<polygon fill="#d254de" stroke="#d254de" points="114.466,-452.553 111.675,-441.948 111.321,-448.666 108.177,-444.779 108.177,-444.779 108.177,-444.779 111.321,-448.666 104.678,-447.609 114.466,-452.553 114.466,-452.553"/>
</g>
<!-- IndicatorScore -->
<g id="node6" class="node"><title>IndicatorScore</title>
<path fill="none" stroke="black" d="M172.348,-179.5C172.348,-179.5 307.028,-179.5 307.028,-179.5 313.028,-179.5 319.028,-185.5 319.028,-191.5 319.028,-191.5 319.028,-295.5 319.028,-295.5 319.028,-301.5 313.028,-307.5 307.028,-307.5 307.028,-307.5 172.348,-307.5 172.348,-307.5 166.348,-307.5 160.348,-301.5 160.348,-295.5 160.348,-295.5 160.348,-191.5 160.348,-191.5 160.348,-185.5 166.348,-179.5 172.348,-179.5"/>
<text text-anchor="middle" x="239.688" y="-292.3" font-family="Times,serif" font-size="14.00">IndicatorScore</text>
<polyline fill="none" stroke="black" points="160.348,-285.5 319.028,-285.5 "/>
<text text-anchor="start" x="168.348" y="-270.3" font-family="Times,serif" font-size="14.00">domain_score_id :integer</text>
<text text-anchor="start" x="168.348" y="-256.3" font-family="Times,serif" font-size="14.00">indicator_id :integer</text>
<text text-anchor="start" x="168.348" y="-242.3" font-family="Times,serif" font-size="14.00">alignment_score :integer</text>
<text text-anchor="start" x="168.348" y="-228.3" font-family="Times,serif" font-size="14.00">created_at :datetime</text>
<text text-anchor="start" x="168.348" y="-214.3" font-family="Times,serif" font-size="14.00">updated_at :datetime</text>
<text text-anchor="start" x="168.348" y="-200.3" font-family="Times,serif" font-size="14.00">comments :text</text>
<text text-anchor="start" x="168.348" y="-186.3" font-family="Times,serif" font-size="14.00">id :integer</text>
</g>
<!-- DomainScore&#45;&gt;IndicatorScore -->
<g id="edge3" class="edge"><title>DomainScore&#45;&gt;IndicatorScore</title>
<path fill="none" stroke="#3aa878" d="M239.274,-474.222C244.359,-464.826 248.744,-454.946 251.688,-445 263.814,-404.022 261.581,-356.331 255.957,-317.743"/>
<ellipse fill="none" stroke="#3aa878" cx="237.232" cy="-477.826" rx="4.00002" ry="4.00002"/>
<polygon fill="#3aa878" stroke="#3aa878" points="255.92,-317.508 258.822,-306.933 255.148,-312.568 254.376,-307.628 254.376,-307.628 254.376,-307.628 255.148,-312.568 249.93,-308.323 255.92,-317.508 255.92,-317.508"/>
</g>
<!-- Evidence -->
<g id="node9" class="node"><title>Evidence</title>
<ellipse fill="none" stroke="black" cx="199.688" cy="-394.5" rx="43.0128" ry="18"/>
<text text-anchor="middle" x="199.688" y="-390.3" font-family="Times,serif" font-size="14.00">Evidence</text>
</g>
<!-- DomainScore&#45;&gt;Evidence -->
<g id="edge5" class="edge"><title>DomainScore&#45;&gt;Evidence</title>
<path fill="none" stroke="#9fa93c" d="M195.425,-471.158C196.389,-454.06 197.372,-436.599 198.152,-422.767"/>
<polygon fill="#9fa93c" stroke="#9fa93c" points="195.412,-471.394 190.357,-481.125 195.131,-476.386 194.85,-481.378 194.85,-481.378 194.85,-481.378 195.131,-476.386 199.342,-481.631 195.412,-471.394 195.412,-471.394"/>
<polygon fill="#9fa93c" stroke="#9fa93c" points="198.166,-422.511 203.221,-412.78 198.447,-417.519 198.728,-412.527 198.728,-412.527 198.728,-412.527 198.447,-417.519 194.236,-412.274 198.166,-422.511 198.166,-422.511"/>
</g>
<!-- EvidenceScore -->
<g id="node4" class="node"><title>EvidenceScore</title>
<path fill="none" stroke="black" d="M168.465,-0.5C168.465,-0.5 310.91,-0.5 310.91,-0.5 316.91,-0.5 322.91,-6.5 322.91,-12.5 322.91,-12.5 322.91,-130.5 322.91,-130.5 322.91,-136.5 316.91,-142.5 310.91,-142.5 310.91,-142.5 168.465,-142.5 168.465,-142.5 162.465,-142.5 156.465,-136.5 156.465,-130.5 156.465,-130.5 156.465,-12.5 156.465,-12.5 156.465,-6.5 162.465,-0.5 168.465,-0.5"/>
<text text-anchor="middle" x="239.688" y="-127.3" font-family="Times,serif" font-size="14.00">EvidenceScore</text>
<polyline fill="none" stroke="black" points="156.465,-120.5 322.91,-120.5 "/>
<text text-anchor="start" x="164.465" y="-105.3" font-family="Times,serif" font-size="14.00">id :integer</text>
<text text-anchor="start" x="164.465" y="-91.3" font-family="Times,serif" font-size="14.00">indicator_score_id :integer</text>
<text text-anchor="start" x="164.465" y="-77.3" font-family="Times,serif" font-size="14.00">description :text</text>
<text text-anchor="start" x="164.465" y="-63.3" font-family="Times,serif" font-size="14.00">quality :boolean</text>
<text text-anchor="start" x="164.465" y="-49.3" font-family="Times,serif" font-size="14.00">alignment :boolean</text>
<text text-anchor="start" x="164.465" y="-35.3" font-family="Times,serif" font-size="14.00">created_at :datetime</text>
<text text-anchor="start" x="164.465" y="-21.3" font-family="Times,serif" font-size="14.00">updated_at :datetime</text>
<text text-anchor="start" x="164.465" y="-7.3" font-family="Times,serif" font-size="14.00">evidence_id :integer</text>
</g>
<!-- Indicator&#45;&gt;DomainScore -->
<g id="edge7" class="edge"><title>Indicator&#45;&gt;DomainScore</title>
<path fill="none" stroke="#d4edf1" d="M126.33,-450.903C132.592,-458.27 138.949,-465.872 145.119,-473.371"/>
<ellipse fill="none" stroke="#d4edf1" cx="123.697" cy="-447.82" rx="4.00002" ry="4.00002"/>
<polygon fill="#d4edf1" stroke="#d4edf1" points="145.337,-473.637 148.184,-484.227 148.502,-477.507 151.668,-481.378 151.668,-481.378 151.668,-481.378 148.502,-477.507 155.151,-478.529 145.337,-473.637 145.337,-473.637"/>
</g>
<!-- Indicator&#45;&gt;EvidenceScore -->
<g id="edge8" class="edge"><title>Indicator&#45;&gt;EvidenceScore</title>
<path fill="none" stroke="#7958bf" d="M89.2415,-334.357C102.321,-289.895 123.423,-228.403 151.688,-179 157.169,-169.419 163.523,-159.842 170.26,-150.576"/>
<polygon fill="#7958bf" stroke="#7958bf" points="89.1903,-334.534 82.0891,-342.89 87.8011,-339.337 86.4119,-344.141 86.4119,-344.141 86.4119,-344.141 87.8011,-339.337 90.7347,-345.391 89.1903,-334.534 89.1903,-334.534"/>
<polygon fill="#7958bf" stroke="#7958bf" points="170.288,-150.537 179.873,-145.21 173.277,-146.529 176.266,-142.521 176.266,-142.521 176.266,-142.521 173.277,-146.529 172.658,-139.831 170.288,-150.537 170.288,-150.537"/>
</g>
<!-- Indicator&#45;&gt;IndicatorScore -->
<g id="edge6" class="edge"><title>Indicator&#45;&gt;IndicatorScore</title>
<path fill="none" stroke="#a9a996" d="M134.683,-338.752C143.905,-330.474 153.518,-321.845 163.019,-313.317"/>
<ellipse fill="none" stroke="#a9a996" cx="131.479" cy="-341.627" rx="4.00002" ry="4.00002"/>
<ellipse fill="#a9a996" stroke="#a9a996" cx="166.265" cy="-310.404" rx="4.00002" ry="4.00002"/>
</g>
<!-- IndicatorScore&#45;&gt;EvidenceScore -->
<g id="edge9" class="edge"><title>IndicatorScore&#45;&gt;EvidenceScore</title>
<path fill="none" stroke="#6b1ff9" d="M239.688,-171.032C239.688,-165.028 239.688,-158.931 239.688,-152.867"/>
<ellipse fill="none" stroke="#6b1ff9" cx="239.688" cy="-175.198" rx="4" ry="4"/>
<polygon fill="#6b1ff9" stroke="#6b1ff9" points="239.688,-152.711 244.188,-142.711 239.688,-147.711 239.688,-142.711 239.688,-142.711 239.688,-142.711 239.688,-147.711 235.188,-142.711 239.688,-152.711 239.688,-152.711"/>
</g>
<!-- ObservationRead -->
<g id="node7" class="node"><title>ObservationRead</title>
<path fill="none" stroke="black" d="M228.124,-632.5C228.124,-632.5 389.252,-632.5 389.252,-632.5 395.252,-632.5 401.252,-638.5 401.252,-644.5 401.252,-644.5 401.252,-902.5 401.252,-902.5 401.252,-908.5 395.252,-914.5 389.252,-914.5 389.252,-914.5 228.124,-914.5 228.124,-914.5 222.124,-914.5 216.124,-908.5 216.124,-902.5 216.124,-902.5 216.124,-644.5 216.124,-644.5 216.124,-638.5 222.124,-632.5 228.124,-632.5"/>
<text text-anchor="middle" x="308.688" y="-899.3" font-family="Times,serif" font-size="14.00">ObservationRead</text>
<polyline fill="none" stroke="black" points="216.124,-892.5 401.252,-892.5 "/>
<text text-anchor="start" x="224.124" y="-877.3" font-family="Times,serif" font-size="14.00">id :integer</text>
<text text-anchor="start" x="224.124" y="-863.3" font-family="Times,serif" font-size="14.00">observation_group_id :integer</text>
<text text-anchor="start" x="224.124" y="-849.3" font-family="Times,serif" font-size="14.00">correlation :float</text>
<text text-anchor="start" x="224.124" y="-835.3" font-family="Times,serif" font-size="14.00">average_difference :float</text>
<text text-anchor="start" x="224.124" y="-821.3" font-family="Times,serif" font-size="14.00">percent_correct :float</text>
<text text-anchor="start" x="224.124" y="-807.3" font-family="Times,serif" font-size="14.00">reader_id :integer</text>
<text text-anchor="start" x="224.124" y="-793.3" font-family="Times,serif" font-size="14.00">created_at :datetime</text>
<text text-anchor="start" x="224.124" y="-779.3" font-family="Times,serif" font-size="14.00">updated_at :datetime</text>
<text text-anchor="start" x="224.124" y="-765.3" font-family="Times,serif" font-size="14.00">reader_number :string</text>
<text text-anchor="start" x="224.124" y="-751.3" font-family="Times,serif" font-size="14.00">document_quality :integer</text>
<text text-anchor="start" x="224.124" y="-737.3" font-family="Times,serif" font-size="14.00">document_alignment :integer</text>
<text text-anchor="start" x="224.124" y="-723.3" font-family="Times,serif" font-size="14.00">live_quality :integer</text>
<text text-anchor="start" x="224.124" y="-709.3" font-family="Times,serif" font-size="14.00">live_alignment :integer</text>
<text text-anchor="start" x="224.124" y="-695.3" font-family="Times,serif" font-size="14.00">observation_status :integer</text>
<text text-anchor="start" x="224.124" y="-681.3" font-family="Times,serif" font-size="14.00">comments :text</text>
<text text-anchor="start" x="224.124" y="-667.3" font-family="Times,serif" font-size="14.00">flags :boolean</text>
<text text-anchor="start" x="224.124" y="-653.3" font-family="Times,serif" font-size="14.00">employee_id_observer :string</text>
<text text-anchor="start" x="224.124" y="-639.3" font-family="Times,serif" font-size="14.00">employee_id_learner :string</text>
</g>
<!-- ObservationRead&#45;&gt;DomainScore -->
<g id="edge10" class="edge"><title>ObservationRead&#45;&gt;DomainScore</title>
<path fill="none" stroke="#beb669" d="M234.668,-625.093C231.202,-618.19 227.814,-611.444 224.558,-604.96"/>
<ellipse fill="none" stroke="#beb669" cx="236.47" cy="-628.683" rx="4.00002" ry="4.00002"/>
<polygon fill="#beb669" stroke="#beb669" points="224.376,-604.597 223.91,-593.641 222.132,-600.129 219.888,-595.66 219.888,-595.66 219.888,-595.66 222.132,-600.129 215.867,-597.68 224.376,-604.597 224.376,-604.597"/>
</g>
<!-- ObservationRead&#45;&gt;EvidenceScore -->
<g id="edge12" class="edge"><title>ObservationRead&#45;&gt;EvidenceScore</title>
<path fill="none" stroke="#e53624" d="M343.345,-622.583C364.815,-499.641 379.496,-323.034 327.688,-179 324.243,-169.422 319.522,-160.093 314.042,-151.194"/>
<polygon fill="#e53624" stroke="#e53624" points="343.341,-622.607 337.156,-631.662 342.464,-627.529 341.587,-632.452 341.587,-632.452 341.587,-632.452 342.464,-627.529 346.017,-633.241 343.341,-622.607 343.341,-622.607"/>
<polygon fill="#e53624" stroke="#e53624" points="314.032,-151.178 312.344,-140.342 311.302,-146.988 308.573,-142.799 308.573,-142.799 308.573,-142.799 311.302,-146.988 304.803,-145.255 314.032,-151.178 314.032,-151.178"/>
</g>
<!-- ObservationRead&#45;&gt;IndicatorScore -->
<g id="edge11" class="edge"><title>ObservationRead&#45;&gt;IndicatorScore</title>
<path fill="none" stroke="#8bc55e" d="M304.166,-622.222C299.392,-539.388 289.626,-435.162 269.688,-344 267.777,-335.263 265.481,-326.179 263.021,-317.209"/>
<polygon fill="#8bc55e" stroke="#8bc55e" points="304.166,-622.231 300.231,-632.466 304.445,-627.223 304.724,-632.215 304.724,-632.215 304.724,-632.215 304.445,-627.223 309.217,-631.965 304.166,-622.231 304.166,-622.231"/>
<polygon fill="#8bc55e" stroke="#8bc55e" points="263.01,-317.169 264.629,-306.323 261.654,-312.356 260.298,-307.544 260.298,-307.544 260.298,-307.544 261.654,-312.356 255.967,-308.764 263.01,-317.169 263.01,-317.169"/>
</g>
<!-- Reader -->
<g id="node8" class="node"><title>Reader</title>
<path fill="none" stroke="black" d="M237.465,-951.5C237.465,-951.5 379.91,-951.5 379.91,-951.5 385.91,-951.5 391.91,-957.5 391.91,-963.5 391.91,-963.5 391.91,-1081.5 391.91,-1081.5 391.91,-1087.5 385.91,-1093.5 379.91,-1093.5 379.91,-1093.5 237.465,-1093.5 237.465,-1093.5 231.465,-1093.5 225.465,-1087.5 225.465,-1081.5 225.465,-1081.5 225.465,-963.5 225.465,-963.5 225.465,-957.5 231.465,-951.5 237.465,-951.5"/>
<text text-anchor="middle" x="308.688" y="-1078.3" font-family="Times,serif" font-size="14.00">Reader</text>
<polyline fill="none" stroke="black" points="225.465,-1071.5 391.91,-1071.5 "/>
<text text-anchor="start" x="233.465" y="-1056.3" font-family="Times,serif" font-size="14.00">id :integer</text>
<text text-anchor="start" x="233.465" y="-1042.3" font-family="Times,serif" font-size="14.00">employee_number :integer</text>
<text text-anchor="start" x="233.465" y="-1028.3" font-family="Times,serif" font-size="14.00">first_name :string</text>
<text text-anchor="start" x="233.465" y="-1014.3" font-family="Times,serif" font-size="14.00">last_name :string</text>
<text text-anchor="start" x="233.465" y="-1000.3" font-family="Times,serif" font-size="14.00">email :string</text>
<text text-anchor="start" x="233.465" y="-986.3" font-family="Times,serif" font-size="14.00">is_reader1a :string</text>
<text text-anchor="start" x="233.465" y="-972.3" font-family="Times,serif" font-size="14.00">is_reader1b :string</text>
<text text-anchor="start" x="233.465" y="-958.3" font-family="Times,serif" font-size="14.00">is_reader2 :string</text>
</g>
<!-- Reader&#45;&gt;ObservationRead -->
<g id="edge13" class="edge"><title>Reader&#45;&gt;ObservationRead</title>
<path fill="none" stroke="#819a36" d="M308.688,-943.137C308.688,-937.308 308.688,-931.323 308.688,-925.245"/>
<ellipse fill="none" stroke="#819a36" cx="308.688" cy="-947.38" rx="4" ry="4"/>
<polygon fill="#819a36" stroke="#819a36" points="308.688,-924.941 313.188,-914.941 308.688,-919.941 308.688,-914.941 308.688,-914.941 308.688,-914.941 308.688,-919.941 304.188,-914.941 308.688,-924.941 308.688,-924.941"/>
</g>
</g>
</svg>
